<?xml version="1.0" standalone="no"?>
<!DOCTYPE svg PUBLIC "-//W3C//DTD SVG 20010904//EN"
 "http://www.w3.org/TR/2001/REC-SVG-20010904/DTD/svg10.dtd">
<svg version="1.0" xmlns="http://www.w3.org/2000/svg"
 width="1024.000000pt" height="1024.000000pt" viewBox="0 0 1024.000000 1024.000000"
 preserveAspectRatio="xMidYMid meet">
<metadata>
Created by potrace 1.11, written by Peter Selinger 2001-2013
</metadata>
<g transform="translate(0.000000,1024.000000) scale(0.100000,-0.100000)"
fill="#000000" stroke="none">
<path d="M0 5120 l0 -5120 5120 0 5120 0 0 5120 0 5120 -5120 0 -5120 0 0
-5120z m5239 2053 c12 -65 46 -246 75 -403 l53 -285 -436 -5 c-240 -3 -441 -9
-448 -13 -7 -4 -17 -24 -23 -45 -14 -51 -14 -2563 0 -2614 6 -21 16 -41 23
-45 7 -4 208 -10 448 -13 l436 -5 -78 -400 c-43 -220 -78 -401 -79 -402 0 -2
-242 -3 -537 -3 -584 0 -668 6 -797 54 -124 47 -190 108 -246 228 -68 146 -64
22 -67 1905 -4 1857 -6 1774 53 1900 35 73 130 169 206 206 114 55 122 55 784
56 l611 1 22 -117z m2251 106 c175 -27 303 -139 362 -315 l23 -69 0 -730 0
-730 -26 -72 c-15 -40 -41 -90 -58 -112 -34 -42 -103 -90 -163 -111 l-37 -14
69 -17 c117 -30 172 -78 228 -197 l27 -57 0 -715 c0 -655 -2 -721 -18 -792
-44 -187 -142 -303 -303 -358 -135 -47 -194 -50 -1091 -50 l-843 0 0 2175 0
2175 883 0 c560 0 906 -4 947 -11z m-4332 -426 l2 -383 -415 0 -415 0 0 385 0
385 413 -2 412 -3 3 -382z m2 -2358 l0 -1555 -415 0 -415 0 0 1555 0 1555 415
0 415 0 0 -1555z"/>
<path d="M6530 5960 l0 -570 225 0 225 0 32 29 33 29 3 491 c2 323 -1 504 -8
530 -15 57 -36 61 -291 61 l-219 0 0 -570z"/>
<path d="M6530 4215 l0 -516 245 3 c219 3 246 5 262 21 17 16 18 51 21 452 2
288 -1 448 -8 475 -19 69 -39 74 -297 78 l-223 4 0 -517z"/>
</g>
</svg>
