<?xml version="1.0" standalone="no"?>
<!DOCTYPE svg PUBLIC "-//W3C//DTD SVG 20010904//EN"
 "http://www.w3.org/TR/2001/REC-SVG-20010904/DTD/svg10.dtd">
<svg version="1.0" xmlns="http://www.w3.org/2000/svg"
 width="1024.000000pt" height="1024.000000pt" viewBox="0 0 1024.000000 1024.000000"
 preserveAspectRatio="xMidYMid meet">
<metadata>
Created by potrace 1.11, written by Peter Selinger 2001-2013
</metadata>
<g transform="translate(0.000000,1024.000000) scale(0.100000,-0.100000)"
fill="#000000" stroke="none">
<path d="M0 5120 l0 -5120 5120 0 5120 0 0 5120 0 5120 -5120 0 -5120 0 0
-5120z m5225 2148 c5 -22 145 -778 145 -784 0 -2 -196 -5 -436 -6 l-436 -3
-19 -24 c-18 -23 -19 -59 -19 -1336 0 -1277 1 -1313 19 -1336 l19 -24 437 -3
437 -3 -5 -22 c-3 -12 -38 -194 -79 -404 l-73 -383 -561 0 c-610 0 -666 4
-794 56 -113 45 -175 104 -230 219 -73 151 -70 54 -70 1954 0 1491 2 1704 15
1756 44 170 151 283 325 342 64 22 70 22 692 23 l628 0 5 -22z m2310 7 c84
-22 170 -71 217 -124 48 -55 103 -164 118 -235 7 -35 10 -288 8 -777 l-3 -724
-25 -64 c-35 -89 -97 -155 -184 -197 -59 -29 -66 -34 -41 -34 134 0 268 -141
295 -310 13 -85 13 -1203 0 -1330 -34 -318 -153 -465 -423 -521 -86 -18 -148
-19 -964 -19 l-873 0 0 2175 0 2175 908 0 c783 0 916 -2 967 -15z m-4375 -420
l0 -385 -415 0 -415 0 0 385 0 385 415 0 415 0 0 -385z m0 -2355 l0 -1560
-415 0 -415 0 0 1560 0 1560 415 0 415 0 0 -1560z"/>
<path d="M6530 5955 l0 -565 208 1 c225 0 268 8 289 49 10 19 13 144 13 530 0
442 -2 508 -16 528 -15 22 -18 22 -255 22 l-239 0 0 -565z"/>
<path d="M6530 4215 l0 -505 244 0 c209 0 247 2 260 16 14 14 16 70 16 470 0
293 -4 462 -10 475 -24 43 -56 49 -290 49 l-220 0 0 -505z"/>
</g>
</svg>
